<svg width="36" height="37" viewBox="0 0 36 37" fill="none" xmlns="http://www.w3.org/2000/svg">
<path d="M17.7992 0C19.9727 2.22077 22.0895 4.38361 24.2441 6.58507C24.1874 6.77819 23.9795 6.89405 23.8283 7.04854C19.0466 11.8184 14.246 16.6075 9.44533 21.358C9.14293 21.667 8.99173 21.976 9.01063 22.4201C9.02953 24.2933 9.02953 26.1665 9.02953 28.0204C9.02953 28.2135 9.02953 28.4259 9.02953 28.6576C10.636 28.6576 12.167 28.6576 13.6979 28.6576C13.868 28.4838 13.7924 28.2714 13.7924 28.0783C13.7735 26.6879 13.7546 25.2782 13.7357 23.8878C13.7357 23.6174 13.7546 23.3857 13.9625 23.1733C18.2717 18.6545 22.562 14.1164 26.8523 9.5976C26.8901 9.55898 26.9468 9.52036 26.9846 9.50105C27.1547 9.52036 27.2303 9.65553 27.3248 9.75209C30.1221 12.726 32.9004 15.7192 35.6976 18.7124C35.8866 18.9055 36 19.0986 36 19.4076C36 25.143 36 30.8591 36 36.5945C36 36.7103 35.9811 36.8262 35.9622 36.9807C33.0138 36.9807 30.0843 36.9807 27.1547 36.9807C27.0035 36.8069 27.0791 36.5945 27.0791 36.3821C27.0791 33.7944 27.0791 31.2067 27.0602 28.619C27.0602 28.2135 27.1736 27.9238 27.4571 27.6534C28.3077 26.8617 29.1204 26.0506 29.9898 25.2203C29.1015 24.1388 28.2888 23.1733 27.4571 22.1691C25.8506 23.7719 24.2819 25.3554 22.6943 26.9196C22.4675 27.1514 22.5242 27.4024 22.5242 27.6728C22.5242 30.5501 22.5242 33.4275 22.5242 36.3048C22.5242 36.5172 22.5242 36.749 22.5242 37C15.002 37 7.53642 37 0.0708743 37C-0.0425264 36.8262 0.0141762 36.6331 0.0141762 36.4593C0.0141762 30.5887 0.0141762 24.7182 0.0141762 18.8476C0.0141762 18.5 0.0897762 18.2296 0.335478 17.9786C6.10001 12.0694 11.8456 6.16023 17.6102 0.251044C17.648 0.154489 17.7236 0.0772443 17.7992 0Z" fill="#5183C3"/>
</svg>
