<svg width="25" height="24" viewBox="0 0 25 24" fill="none" xmlns="http://www.w3.org/2000/svg">
<path d="M17.1185 0C17.1743 0 17.2302 0 17.2892 0C17.4262 1.69253 16.7802 2.95719 15.995 3.87301C15.2246 4.78251 14.1697 5.6646 12.4635 5.53076C12.3497 3.86247 12.9967 2.69161 13.7808 1.77789C14.508 0.92636 15.8412 0.168621 17.1185 0Z" fill="black"/>
<path d="M22.2836 17.6167C22.2836 17.6335 22.2836 17.6483 22.2836 17.6641C21.8041 19.1163 21.1201 20.361 20.2855 21.516C19.5235 22.5646 18.5898 23.9758 16.9225 23.9758C15.4819 23.9758 14.525 23.0494 13.0485 23.0241C11.4866 22.9988 10.6277 23.7987 9.1997 24C9.03635 24 8.873 24 8.71281 24C7.6642 23.8482 6.81793 23.0178 6.20141 22.2695C4.38347 20.0585 2.97865 17.2025 2.71729 13.5476C2.71729 13.1893 2.71729 12.832 2.71729 12.4737C2.82794 9.858 4.09892 7.73127 5.78829 6.70057C6.67987 6.15256 7.90553 5.68569 9.27031 5.89436C9.85521 5.98499 10.4528 6.18523 10.9765 6.38336C11.4729 6.57411 12.0937 6.9124 12.6817 6.89449C13.0801 6.88289 13.4763 6.67528 13.8779 6.52879C15.054 6.10408 16.2069 5.61718 17.7266 5.84588C19.553 6.12199 20.8493 6.93348 21.6502 8.18549C20.1052 9.16876 18.8838 10.6505 19.0925 13.1809C19.278 15.4794 20.6143 16.8241 22.2836 17.6167Z" fill="black"/>
</svg>
