<svg width="15" height="15" viewBox="0 0 15 15" fill="none" xmlns="http://www.w3.org/2000/svg">
<path fill-rule="evenodd" clip-rule="evenodd" d="M9.66854 11.5815C9.8516 11.7645 10.1484 11.7645 10.3315 11.5815L12.2065 9.70646C12.3895 9.5234 12.3895 9.2266 12.2065 9.04354C12.0234 8.86049 11.7266 8.86049 11.5435 9.04354L10.4688 10.1183L10.4688 3.75C10.4688 3.49112 10.2589 3.28125 10 3.28125C9.74112 3.28125 9.53125 3.49112 9.53125 3.75L9.53125 10.1183L8.45646 9.04354C8.2734 8.86049 7.9766 8.86049 7.79354 9.04354C7.61049 9.2266 7.61049 9.5234 7.79354 9.70646L9.66854 11.5815ZM5.33146 3.41854C5.1484 3.23549 4.8516 3.23549 4.66854 3.41854L2.79354 5.29354C2.61049 5.4766 2.61049 5.7734 2.79354 5.95646C2.9766 6.13952 3.2734 6.13952 3.45646 5.95646L4.53125 4.88166V11.25C4.53125 11.5089 4.74112 11.7188 5 11.7188C5.25888 11.7188 5.46875 11.5089 5.46875 11.25V4.88166L6.54354 5.95646C6.7266 6.13952 7.0234 6.13952 7.20646 5.95646C7.38951 5.7734 7.38951 5.4766 7.20646 5.29354L5.33146 3.41854Z" fill="white"/>
</svg>
