<svg width="24" height="24" viewBox="0 0 24 24" fill="none" xmlns="http://www.w3.org/2000/svg">
<path d="M14.5303 7.86358C14.8232 7.57069 14.8232 7.09581 14.5303 6.80292C14.2374 6.51003 13.7626 6.51003 13.4697 6.80292L14.5303 7.86358ZM11.3333 4.66658L10.803 4.13625L11.3333 4.66658ZM5.99999 9.99992L6.53032 10.5303L5.99999 9.99992ZM19.8637 13.1969C20.1566 12.904 20.1566 12.4291 19.8637 12.1363C19.5708 11.8434 19.0959 11.8434 18.803 12.1363L19.8637 13.1969ZM13.4697 6.80292L8.13633 12.1363L9.19699 13.1969L14.5303 7.86358L13.4697 6.80292ZM11.8637 15.8636L17.197 10.5302L16.1363 9.46959L10.803 14.8029L11.8637 15.8636ZM10.803 4.13625L5.46966 9.46959L6.53032 10.5303L11.8637 5.19691L10.803 4.13625ZM14.5303 18.5302L19.8637 13.1969L18.803 12.1363L13.4697 17.4696L14.5303 18.5302ZM5.46967 18.5302C7.9717 21.0323 12.0283 21.0323 14.5303 18.5302L13.4697 17.4696C11.5534 19.3858 8.44657 19.3858 6.53033 17.4696L5.46967 18.5302ZM5.46966 9.46959C2.96763 11.9716 2.96763 16.0282 5.46967 18.5302L6.53033 17.4696C4.61408 15.5533 4.61408 12.4465 6.53032 10.5303L5.46966 9.46959ZM17.197 4.13625C15.4313 2.3706 12.5687 2.3706 10.803 4.13625L11.8637 5.19691C13.0435 4.01704 14.9565 4.01704 16.1363 5.19691L17.197 4.13625ZM17.197 10.5302C18.9627 8.76459 18.9627 5.9019 17.197 4.13625L16.1363 5.19691C17.3162 6.37678 17.3162 8.28972 16.1363 9.46959L17.197 10.5302ZM8.13633 15.8636C9.16561 16.8929 10.8344 16.8929 11.8637 15.8636L10.803 14.8029C10.3595 15.2464 9.64048 15.2464 9.19699 14.8029L8.13633 15.8636ZM8.13633 12.1363C7.10706 13.1655 7.10706 14.8343 8.13633 15.8636L9.19699 14.8029C8.75351 14.3594 8.75351 13.6404 9.19699 13.1969L8.13633 12.1363Z" fill="#28303F"/>
</svg>
