<svg width="16" height="17" viewBox="0 0 16 17" fill="none" xmlns="http://www.w3.org/2000/svg">
<path d="M13.5772 8.51456V8.29077C13.5772 7.8785 13.3637 7.51534 13.0417 7.30534V4.86408C13.0417 4.22177 12.5192 3.69922 11.8769 3.69922H4.67387C4.03156 3.69922 3.50899 4.22177 3.50899 4.86408V7.30532C3.18699 7.51532 2.97354 7.87847 2.97354 8.29074V8.51454C2.64383 8.60136 2.3999 8.90202 2.3999 9.25864V11.8773C2.3999 12.2892 2.72539 12.6265 3.13271 12.6457V12.9556C3.13271 13.1454 3.28655 13.2992 3.47631 13.2992C3.66607 13.2992 3.81991 13.1454 3.81991 12.9556V12.6466H12.7308V12.9556C12.7308 13.1454 12.8847 13.2992 13.0744 13.2992C13.2642 13.2992 13.418 13.1454 13.418 12.9556V12.6457C13.8254 12.6265 14.1509 12.2892 14.1509 11.8772V9.25864C14.1509 8.902 13.9069 8.60136 13.5772 8.51456ZM4.19621 4.86408C4.19621 4.60069 4.41049 4.38642 4.67387 4.38642H11.8769C12.1403 4.38642 12.3545 4.60069 12.3545 4.86408V7.11482H11.8964V6.50919C11.8964 6.08528 11.5515 5.7404 11.1276 5.7404H9.27871C8.8548 5.7404 8.50992 6.08528 8.50992 6.50919V7.11482H8.04084V6.50919C8.04084 6.08528 7.69596 5.7404 7.27205 5.7404H5.42316C4.99923 5.7404 4.65436 6.08528 4.65436 6.50919V7.11482H4.19621V4.86408ZM11.2092 6.50917V7.03323C11.2092 7.07821 11.1726 7.1148 11.1276 7.1148H9.27871C9.23372 7.1148 9.19714 7.07819 9.19714 7.03323V6.50917C9.19714 6.46418 9.23375 6.4276 9.27871 6.4276H11.1276C11.1726 6.4276 11.2092 6.46418 11.2092 6.50917ZM7.35362 6.50917V7.03323C7.35362 7.07821 7.31701 7.1148 7.27205 7.1148H5.42316C5.37817 7.1148 5.34159 7.07819 5.34159 7.03323V6.50917C5.34159 6.46418 5.37819 6.4276 5.42316 6.4276H7.27205C7.31701 6.4276 7.35362 6.46418 7.35362 6.50917ZM3.66077 8.29074C3.66077 8.02125 3.88002 7.80202 4.14951 7.80202H12.4012C12.6707 7.80202 12.89 8.02127 12.89 8.29074V8.48922H3.66077V8.29074ZM13.4636 11.8772C13.4636 11.9225 13.4268 11.9594 13.3814 11.9594H3.16929C3.12399 11.9594 3.0871 11.9225 3.0871 11.8772V9.25864C3.0871 9.21333 3.12396 9.17647 3.16929 9.17647H13.3815C13.4268 9.17647 13.4637 9.21333 13.4637 9.25864V11.8772H13.4636Z" fill="#606977"/>
</svg>
