<svg width="20" height="20" viewBox="0 0 20 20" fill="none" xmlns="http://www.w3.org/2000/svg">
<path d="M9.24992 13.3334C9.24992 13.7476 9.5857 14.0834 9.99992 14.0834C10.4141 14.0834 10.7499 13.7476 10.7499 13.3334H9.24992ZM10.7499 11.6667C10.7499 11.2525 10.4141 10.9167 9.99992 10.9167C9.5857 10.9167 9.24992 11.2525 9.24992 11.6667H10.7499ZM6.66659 7.41669H13.3333V5.91669H6.66659V7.41669ZM15.9166 10V15H17.4166V10H15.9166ZM13.3333 17.5834H6.66659V19.0834H13.3333V17.5834ZM4.08325 15V10H2.58325V15H4.08325ZM6.66659 17.5834C5.23985 17.5834 4.08325 16.4268 4.08325 15H2.58325C2.58325 17.2552 4.41142 19.0834 6.66659 19.0834V17.5834ZM15.9166 15C15.9166 16.4268 14.76 17.5834 13.3333 17.5834V19.0834C15.5884 19.0834 17.4166 17.2552 17.4166 15H15.9166ZM13.3333 7.41669C14.76 7.41669 15.9166 8.57329 15.9166 10H17.4166C17.4166 7.74486 15.5884 5.91669 13.3333 5.91669V7.41669ZM6.66659 5.91669C4.41142 5.91669 2.58325 7.74486 2.58325 10H4.08325C4.08325 8.57329 5.23985 7.41669 6.66659 7.41669V5.91669ZM7.41659 6.66669V5.00002H5.91659V6.66669H7.41659ZM12.5833 5.00002V6.66669H14.0833V5.00002H12.5833ZM9.99992 2.41669C11.4267 2.41669 12.5833 3.57328 12.5833 5.00002H14.0833C14.0833 2.74486 12.2551 0.916687 9.99992 0.916687V2.41669ZM7.41659 5.00002C7.41659 3.57328 8.57318 2.41669 9.99992 2.41669V0.916687C7.74476 0.916687 5.91659 2.74486 5.91659 5.00002H7.41659ZM10.7499 13.3334V11.6667H9.24992V13.3334H10.7499Z" fill="#464E5E"/>
</svg>
