<svg width="754" height="740" viewBox="0 0 754 740" fill="none" xmlns="http://www.w3.org/2000/svg">
<circle opacity="0.03" cx="99" cy="531" r="99" fill="white"/>
<circle cx="309" cy="737" r="99" fill="#558CD3"/>
<path d="M13 242C13 267.87 18.0956 293.488 27.9957 317.389C37.8959 341.29 52.4068 363.007 70.7 381.3C88.9931 399.593 110.71 414.104 134.611 424.004C158.513 433.904 184.13 439 210 439L210 242H13Z" fill="#447AC0"/>
<path d="M407 439C407 464.87 401.904 490.488 392.004 514.389C382.104 538.29 367.593 560.007 349.3 578.3C331.007 596.593 309.29 611.104 285.389 621.004C261.487 630.904 235.87 636 210 636L210 439H407Z" fill="#5087CD"/>
<path d="M489 1C489 32.2546 482.844 63.2032 470.883 92.0787C458.923 120.954 441.392 147.191 419.291 169.291C397.191 191.392 370.954 208.923 342.079 220.883C313.203 232.844 282.255 239 251 239C219.745 239 188.797 232.844 159.921 220.883C131.046 208.923 104.809 191.392 82.7086 169.291C60.6082 147.191 43.0773 120.954 31.1167 92.0786C19.156 63.2032 13 32.2546 13 0.999985L251 1H489Z" fill="#467CC2"/>
<path d="M868 874C868 842.745 861.844 811.797 849.883 782.921C837.923 754.046 820.392 727.809 798.291 705.709C776.191 683.608 749.954 666.077 721.079 654.117C692.203 642.156 661.255 636 630 636C598.745 636 567.797 642.156 538.921 654.117C510.046 666.077 483.809 683.608 461.709 705.709C439.608 727.809 422.077 754.046 410.117 782.921C398.156 811.797 392 842.745 392 874L630 874H868Z" fill="#5D94DD"/>
<path d="M794 438C794 462.557 789.163 486.874 779.765 509.562C770.368 532.25 756.594 552.864 739.229 570.229C721.864 587.594 701.25 601.368 678.562 610.765C655.874 620.163 631.557 625 607 625C582.443 625 558.126 620.163 535.438 610.765C512.75 601.368 492.136 587.594 474.771 570.229C457.406 552.864 443.632 532.25 434.235 509.562C424.837 486.874 420 462.557 420 438L607 438H794Z" fill="#5087CE"/>
<path d="M686 0C686 25.8704 680.904 51.4875 671.004 75.3886C661.104 99.2898 646.593 121.007 628.3 139.3C610.007 157.593 588.29 172.104 564.389 182.004C540.487 191.904 514.87 197 489 197L489 0H686Z" fill="#4A81C7"/>
<circle cx="408" cy="325" r="99" fill="#4F85CC"/>
<path d="M13 638C13 663.87 18.0956 689.488 27.9957 713.389C37.8959 737.29 52.4068 759.007 70.7 777.3C88.9931 795.593 110.71 810.104 134.611 820.004C158.513 829.904 184.13 835 210 835L210 638H13Z" fill="#497EC2"/>
</svg>
