<svg width="97" height="40" viewBox="0 0 97 40" fill="none" xmlns="http://www.w3.org/2000/svg">
<g clip-path="url(#clip0_353_12344)">
<path d="M9.48419 29.8033C6.58269 29.8033 3.68117 29.7986 0.779706 29.8099C0.450172 29.8112 0.315373 29.7657 0.31666 29.3801C0.332178 24.7253 0.334093 20.0704 0.322404 15.4155C0.31725 15.3097 0.335356 15.204 0.375446 15.106C0.415537 15.0079 0.476638 14.9198 0.554448 14.8478C5.26789 10.1918 9.97707 5.53143 14.682 0.866763C14.8634 0.686923 14.9583 0.668019 15.1507 0.859358C16.7386 2.43911 18.3351 4.01021 19.9401 5.57265C20.1541 5.78086 20.1707 5.88896 19.9439 6.10583C15.9748 9.90113 12.0094 13.7003 8.04778 17.5034C7.92769 17.6064 7.83272 17.7354 7.77012 17.8806C7.70752 18.0259 7.67894 18.1835 7.68656 18.3415C7.70621 19.8389 7.70173 21.3368 7.68907 22.8343C7.68655 23.1321 7.7366 23.2607 8.08035 23.2528C9.14593 23.2285 10.2126 23.2343 11.2785 23.2503C11.5666 23.2546 11.6432 23.1662 11.6339 22.8842C11.5964 21.7518 11.588 20.6185 11.5542 19.486C11.5454 19.3672 11.5633 19.2479 11.6065 19.1369C11.6498 19.0259 11.7173 18.926 11.8042 18.8445C15.2544 15.3488 18.6984 11.847 22.1362 8.33903C22.3577 8.11284 22.4576 8.13752 22.6614 8.34886C24.9279 10.6994 27.2018 13.043 29.4829 15.3795C29.5641 15.4575 29.6278 15.5519 29.6696 15.6565C29.7114 15.761 29.7304 15.8733 29.7254 15.9858C29.7189 20.4382 29.7202 24.8907 29.7291 29.3432C29.7301 29.7015 29.6373 29.7928 29.2807 29.7899C27.1486 29.7725 25.0164 29.772 22.8841 29.7886C22.5426 29.7909 22.4188 29.7221 22.4223 29.3484C22.4415 27.2708 22.4355 25.1929 22.4262 23.1151C22.4202 23.0025 22.4393 22.8899 22.4822 22.7856C22.5251 22.6813 22.5906 22.5878 22.6741 22.5119C23.3033 21.901 23.9107 21.2676 24.5413 20.6582C24.7156 20.4898 24.7274 20.3922 24.5608 20.2064C24.0026 19.5838 23.4623 18.945 22.9242 18.3048C22.8009 18.1581 22.7215 18.1377 22.5752 18.2805C21.3392 19.4868 20.0983 20.6881 18.8527 21.8845C18.6894 22.0412 18.7082 22.2197 18.7082 22.4057C18.7077 24.7264 18.6994 27.0472 18.7168 29.3677C18.7194 29.727 18.6252 29.8138 18.2696 29.812C15.3412 29.7967 12.4127 29.8033 9.48419 29.8033Z" fill="#5183C3"/>
<path d="M44.7711 23.1414C44.7711 25.1783 44.765 27.2153 44.7778 29.2521C44.7797 29.5474 44.7145 29.6485 44.4019 29.6385C43.6471 29.6145 42.8907 29.618 42.1356 29.6373C41.8489 29.6446 41.7732 29.5558 41.7755 29.274C41.7885 27.7094 41.7732 26.1444 41.7891 24.5798C41.7922 24.2747 41.7078 24.1956 41.4063 24.1997C40.1382 24.2167 38.8696 24.2186 37.6016 24.1987C37.2826 24.1937 37.2284 24.3012 37.2309 24.5894C37.2444 26.1271 37.2229 27.6652 37.2476 29.2026C37.2536 29.5762 37.1387 29.6507 36.7949 29.6387C36.0537 29.6129 35.3109 29.6226 34.569 29.6354C34.3305 29.6396 34.242 29.5809 34.2424 29.3232C34.25 25.1954 34.2502 21.0676 34.2429 16.9398C34.2424 16.6814 34.3401 16.6197 34.5748 16.6226C35.3437 16.6321 36.1131 16.6371 36.8818 16.6205C37.1683 16.6143 37.2455 16.7123 37.243 16.991C37.2305 18.4073 37.2476 19.8239 37.2294 21.2401C37.2253 21.5641 37.3213 21.6444 37.6352 21.64C38.8763 21.6226 40.1175 21.6228 41.3589 21.6406C41.6878 21.6457 41.7949 21.5676 41.79 21.2228C41.7701 19.8201 41.79 18.417 41.7751 17.0142C41.7719 16.7165 41.8481 16.6116 42.1567 16.6196C42.9118 16.6394 43.6673 16.6393 44.4231 16.6195C44.7176 16.6118 44.778 16.7181 44.7766 16.9902C44.7665 19.0406 44.7711 21.091 44.7711 23.1414Z" fill="#5183C3"/>
<path d="M65.1576 20.5191C64.9939 18.9808 65.0524 17.5249 65.0282 16.0707C65.0225 15.7245 65.1364 15.6358 65.4651 15.646C66.1795 15.668 66.8954 15.6652 67.61 15.6469C67.9092 15.6392 68.0279 15.6968 68.0269 16.0383C68.0142 20.4491 68.0133 24.86 68.0241 29.2709C68.0246 29.5458 67.9628 29.6489 67.6699 29.6371C67.1041 29.6142 66.5356 29.6084 65.9706 29.639C65.6539 29.6562 65.5572 29.5278 65.5035 29.248C65.385 28.6299 65.3732 28.6321 64.8873 29.0092C62.8949 30.5551 60.2135 29.9919 59.1716 27.6906C58.1545 25.444 58.1741 23.1632 59.6693 21.0917C60.6058 19.7943 61.9377 19.2708 63.5458 19.5976C64.1437 19.7192 64.6201 20.0744 65.1576 20.5191Z" fill="#5183C3"/>
<path d="M38.2931 14.5767C36.5585 14.58 35.0176 14.0275 33.659 12.9517C33.4717 12.8034 33.3932 12.7017 33.5961 12.4813C34.0433 11.9956 34.4674 11.4875 34.879 10.971C35.057 10.7474 35.1839 10.758 35.398 10.9222C36.3186 11.6282 37.3385 12.0809 38.5258 12.0606C38.8778 12.0609 39.2256 11.9839 39.5445 11.8349C40.373 11.4336 40.4475 10.4267 39.6835 9.91289C39.1192 9.5334 38.4636 9.3477 37.8504 9.07204C37.0898 8.73016 36.286 8.48117 35.5853 8.01143C33.3961 6.54356 33.3655 3.56388 35.5242 2.05126C37.4274 0.717642 40.3574 0.849125 42.3087 2.35572C42.8911 2.80534 42.8905 2.80484 42.4348 3.36499C42.137 3.73104 41.8333 4.09277 41.548 4.46841C41.412 4.64754 41.3171 4.65138 41.1296 4.52012C40.205 3.87273 39.1958 3.51534 38.0479 3.72424C37.6675 3.79347 37.3185 3.93666 37.0989 4.28009C36.8246 4.70921 36.907 5.21033 37.2984 5.55557C37.6182 5.83775 38.0106 5.98777 38.397 6.14476C39.208 6.47423 40.0228 6.79445 40.8349 7.12135C43.7801 8.30694 43.696 11.3713 42.4454 12.8766C41.4942 14.0215 40.2174 14.4777 38.7784 14.5752C38.6173 14.5861 38.4549 14.5767 38.2931 14.5767Z" fill="#5183C3"/>
<path d="M73.1358 12.9762C72.835 13.2539 72.5973 13.4875 72.3448 13.704C71.3449 14.5614 70.1851 14.7712 68.9341 14.4712C68.0232 14.2527 67.4561 13.6226 67.132 12.7634C66.9117 12.1536 66.8018 11.5093 66.8076 10.8609C66.7943 8.85107 66.809 6.84105 66.7933 4.83126C66.7908 4.51571 66.8922 4.44912 67.1842 4.45681C67.9258 4.47634 68.6686 4.47832 69.41 4.45611C69.7176 4.44689 69.7947 4.5423 69.7923 4.84278C69.7784 6.59629 69.7848 8.34996 69.7863 10.1036C69.7866 10.3463 69.783 10.5903 69.8059 10.8314C69.9088 11.9101 70.6245 12.3587 71.6561 11.999C72.3792 11.7468 72.8017 11.1572 72.8017 10.4002C72.8017 8.55219 72.8103 6.70407 72.7938 4.85617C72.7909 4.52783 72.8909 4.44759 73.2034 4.4564C73.9584 4.47769 74.7145 4.47223 75.4698 4.45825C75.716 4.4537 75.7926 4.5266 75.792 4.77685C75.7844 7.86589 75.7845 10.9549 75.7924 14.044C75.7931 14.3068 75.6923 14.3574 75.4602 14.3526C74.8668 14.3402 74.2724 14.3339 73.6795 14.3551C73.4142 14.3646 73.3221 14.2567 73.2927 14.0193C73.252 13.6904 73.195 13.3636 73.1358 12.9762Z" fill="#5183C3"/>
<path d="M59.4763 14.5876C56.766 14.5913 54.6869 12.5574 54.5824 9.75972C54.5096 7.81051 55.0978 6.1345 56.8011 5.01796C59.8717 3.00505 63.9523 4.99659 64.3081 8.64865C64.4152 9.74802 64.3117 10.8014 63.8603 11.8059C63.0852 13.5304 61.4054 14.5849 59.4763 14.5876Z" fill="#5183C3"/>
<path d="M91.4015 11.4851C91.8182 9.61908 92.3486 7.79796 92.8756 5.97592C92.9953 5.56215 93.1171 5.14884 93.2261 4.73221C93.278 4.53363 93.3737 4.4541 93.5907 4.45817C94.3324 4.47211 95.0751 4.48073 95.8162 4.45659C96.2168 4.44355 96.1002 4.64059 96.0275 4.84851C95.2062 7.19981 94.3935 9.55416 93.561 11.9015C93.1203 13.144 92.7645 14.419 92.172 15.605C91.6349 16.6802 90.963 17.621 89.7475 18.0102C88.8926 18.2839 88.0246 18.2814 87.1516 18.108C86.9583 18.0696 86.8429 18.0025 86.9102 17.755C87.062 17.1968 87.1891 16.6316 87.3122 16.0662C87.3602 15.8454 87.4523 15.8169 87.6706 15.8569C88.8652 16.0755 89.7752 15.3999 89.9441 14.1979C89.9668 14.0366 89.8853 13.9115 89.8315 13.7772C88.6478 10.828 87.4629 7.87938 86.2766 4.93126C86.0889 4.46437 86.0895 4.46379 86.6011 4.46355C87.3026 4.46323 88.0047 4.48047 88.7053 4.45553C89.0069 4.4448 89.1249 4.55693 89.2132 4.82965C89.9092 6.98092 90.7004 9.10203 91.2523 11.2988C91.2678 11.3601 91.2588 11.4361 91.4015 11.4851Z" fill="#5183C3"/>
<path d="M52.3579 26.8515C52.5945 25.9198 52.7978 25.0579 53.0336 24.2051C53.4209 22.8038 53.8315 21.409 54.2256 20.0096C54.2698 19.8526 54.3068 19.7418 54.5069 19.7437C55.3684 19.7518 56.23 19.7472 57.1429 19.7472C56.8925 20.4747 56.6593 21.1595 56.4211 21.8427C55.5303 24.3983 54.6378 26.9533 53.7436 29.5078C53.4251 30.4122 53.0307 31.2801 52.4428 32.0516C51.5623 33.2072 50.3494 33.5507 48.9743 33.4843C48.6163 33.467 48.1393 33.5317 47.9403 33.2644C47.7567 33.0179 48.031 32.6121 48.0946 32.275C48.1544 31.9579 48.2577 31.6489 48.3141 31.3314C48.3518 31.1193 48.4343 31.0784 48.6415 31.1162C49.8486 31.3366 50.6897 30.7403 50.9215 29.5263C50.9578 29.3364 50.8861 29.1826 50.8214 29.0217C49.6358 26.0728 48.4496 23.1241 47.2629 20.1756C47.0909 19.7481 47.091 19.7473 47.5339 19.747C48.2759 19.7463 49.0182 19.7571 49.7599 19.741C50.0041 19.7357 50.1137 19.8168 50.1885 20.0474C50.8854 22.1985 51.6881 24.316 52.2293 26.5163C52.2663 26.6302 52.3092 26.7421 52.3579 26.8515Z" fill="#5183C3"/>
<path d="M76.4252 25.529C75.5753 25.5291 74.7254 25.5292 73.8755 25.5294C73.4179 25.5301 73.4167 25.5336 73.5672 25.9815C73.9836 27.2205 75.1791 27.8425 76.6373 27.584C77.1029 27.5036 77.5521 27.3467 77.9664 27.1197C78.1718 27.0063 78.2693 27.0474 78.3726 27.2442C78.6042 27.6856 78.8509 28.1191 79.0998 28.5511C79.1818 28.6935 79.1791 28.7802 79.0251 28.8749C76.9731 30.1378 74.2246 30.2987 72.3107 28.7464C71.3538 27.9703 70.8322 26.9387 70.6542 25.7375C70.4069 24.069 70.6812 22.5185 71.7731 21.1711C73.2844 19.3064 76.2162 18.9302 78.0245 20.3881C78.9484 21.133 79.3487 22.1618 79.5143 23.3024C79.5997 23.9308 79.6017 24.5676 79.5203 25.1965C79.4896 25.4556 79.3899 25.5367 79.1368 25.5335C78.2331 25.522 77.3291 25.529 76.4252 25.529Z" fill="#5183C3"/>
<path d="M79.2914 9.22615C79.2914 8.41855 79.2815 7.75721 79.2965 7.09644C79.3022 6.84515 79.2154 6.77517 78.9716 6.77428C78.6394 6.77306 78.2102 6.92771 77.9986 6.70491C77.7745 6.46898 77.9407 6.03608 77.9219 5.68994C77.9101 5.47471 77.9443 5.25485 77.9144 5.04318C77.8569 4.63467 78.0501 4.54629 78.4162 4.53432C79.4954 4.49904 79.4914 4.48577 79.6043 3.42535C79.6514 2.98343 79.7212 2.54397 79.7724 2.10243C79.7932 1.92247 79.8713 1.8477 80.0591 1.85003C80.7068 1.85805 81.3547 1.86041 82.0023 1.84889C82.217 1.84508 82.2806 1.91927 82.2773 2.12846C82.2666 2.7894 82.2876 3.45106 82.267 4.11153C82.2579 4.40127 82.3547 4.47853 82.633 4.46916C83.2127 4.44965 83.7937 4.47379 84.3736 4.45838C84.6199 4.45183 84.7044 4.52701 84.6966 4.77802C84.6799 5.31717 84.6752 5.8579 84.698 6.39661C84.7105 6.69238 84.6352 6.8025 84.3205 6.78828C83.7549 6.7627 83.187 6.79122 82.6206 6.77645C82.3702 6.76992 82.2638 6.82526 82.2672 7.10686C82.2822 8.33446 82.2639 9.56245 82.2772 10.7901C82.29 11.9717 82.9424 12.4923 84.097 12.2178C84.4663 12.1299 84.5879 12.195 84.6386 12.5719C84.7166 13.0503 84.8201 13.5243 84.9484 13.9917C84.9918 14.1687 84.9622 14.2678 84.7739 14.3163C83.7304 14.5851 82.6765 14.7201 81.6147 14.4624C80.3239 14.1491 79.5071 13.0816 79.3536 11.626C79.264 10.7769 79.3149 9.92823 79.2914 9.22615Z" fill="#5183C3"/>
<path d="M50.0361 14.5879C46.9053 14.5957 44.9205 12.1276 45.2101 8.86341C45.4459 6.20501 47.3073 4.68448 49.3955 4.32248C50.7266 4.09173 51.9684 4.28583 53.09 5.08846C53.3034 5.24112 53.3304 5.34719 53.1644 5.5552C52.8028 6.00823 52.4625 6.4784 52.1195 6.94599C52.0099 7.09539 51.9327 7.15334 51.7353 7.029C50.3487 6.15583 48.8599 6.71858 48.3996 8.3045C48.0943 9.35615 48.141 10.4007 48.7812 11.33C49.4401 12.2865 50.5344 12.4829 51.6563 11.9179C51.8779 11.8063 52.0931 11.5075 52.2991 11.5958C52.4931 11.6791 52.5884 11.9966 52.7228 12.2138C52.9073 12.5118 53.0708 12.8246 53.2751 13.1081C53.4486 13.349 53.4159 13.4859 53.1724 13.6544C52.2548 14.2891 51.2447 14.5998 50.0361 14.5879Z" fill="#5183C3"/>
<path d="M15.3364 36.0406C15.484 36.0406 15.6728 36.0469 15.861 36.0387C16.0247 36.0315 16.1178 36.0779 16.1063 36.2624C16.0979 36.398 16.1242 36.5417 15.9125 36.5323C15.8087 36.5277 15.7179 36.5123 15.7222 36.6955C15.7366 37.3185 15.4781 37.5672 14.8566 37.5748C14.7894 37.5756 14.7219 37.5725 14.6548 37.5676C14.555 37.5602 14.4488 37.5649 14.4427 37.6886C14.4369 37.8067 14.5502 37.8427 14.6409 37.8514C14.8412 37.8705 15.0432 37.8727 15.2447 37.8773C15.8397 37.8909 16.0873 38.0354 16.1124 38.3872C16.1394 38.7661 15.8494 39.066 15.3447 39.1816C14.9904 39.2691 14.6201 39.2685 14.266 39.1801C13.783 39.0541 13.7265 38.7439 13.9413 38.3113C14.0863 38.0193 14.148 37.5723 14.0289 37.2851C13.7327 36.5714 13.9982 36.0331 14.7718 36.0113C14.946 36.0063 15.1209 36.0286 15.3364 36.0406Z" fill="#5183C3"/>
<path d="M63.6947 38.246C63.1708 38.4034 62.8621 38.2422 62.7044 37.7799C62.6615 37.6542 62.5728 37.5448 62.5187 37.422C62.4548 37.2768 62.3531 37.2111 62.1998 37.247C62.0238 37.2882 62.0936 37.4386 62.0838 37.5471C62.073 37.668 62.0728 37.7896 62.083 37.9105C62.1042 38.1626 62.0579 38.3076 61.7421 38.3036C61.4528 38.2998 61.3787 38.2083 61.3851 37.9315C61.4025 37.1908 61.3988 36.4494 61.3868 35.7085C61.3828 35.4581 61.4386 35.3333 61.7218 35.3554C62.0569 35.3816 62.3958 35.3564 62.7315 35.3788C63.1063 35.4037 63.4262 35.5572 63.5317 35.9458C63.6353 36.3271 63.6041 36.7139 63.2613 36.9745C63.0846 37.1089 63.0983 37.2008 63.1977 37.3627C63.3721 37.6465 63.5258 37.943 63.6947 38.246Z" fill="#5183C3"/>
<path d="M21.4317 38.2378C20.871 38.439 20.5923 38.1998 20.4276 37.7464C20.3912 37.6462 20.3233 37.558 20.2772 37.4608C20.2086 37.3161 20.1206 37.2029 19.939 37.2449C19.7355 37.292 19.8326 37.4609 19.8192 37.5782C19.8036 37.7122 19.8033 37.8476 19.8184 37.9817C19.8483 38.2364 19.7371 38.2996 19.496 38.3003C19.2425 38.301 19.1382 38.2398 19.1446 37.9629C19.162 37.2087 19.1603 36.4536 19.1453 35.6993C19.14 35.4333 19.227 35.339 19.4913 35.3567C19.8269 35.3791 20.1655 35.3589 20.501 35.3826C20.8453 35.4068 21.1457 35.5539 21.2515 35.901C21.3651 36.2737 21.3749 36.6774 21.0326 36.9412C20.8046 37.1169 20.8567 37.2435 20.9711 37.4305C21.1309 37.6917 21.2756 37.9623 21.4317 38.2378Z" fill="#5183C3"/>
<path d="M2.18451 36.3737C2.09447 36.6816 2.00591 36.9899 1.91354 37.2971C1.88228 37.4011 1.84422 37.4954 1.70381 37.5016C1.55262 37.5082 1.48561 37.4312 1.44871 37.3013C1.36104 36.9929 1.27148 36.6849 1.18269 36.3768C1.13324 36.3201 1.07384 36.2683 1.08323 36.1984C1.07967 36.2792 1.08823 36.3602 1.10865 36.4385C1.11883 36.9374 1.12823 37.4363 1.13958 37.9351C1.14402 38.1304 1.16465 38.3065 0.863192 38.3002C0.588963 38.2945 0.604338 38.1389 0.604843 37.9563C0.606935 37.201 0.60338 36.4457 0.607937 35.6904C0.608754 35.5552 0.552698 35.3543 0.791824 35.3686C0.995435 35.3809 1.2694 35.2332 1.35998 35.5787C1.44653 35.9421 1.57017 36.2957 1.72897 36.6338C1.82373 36.2894 1.92811 35.9472 2.01065 35.5999C2.09926 35.227 2.38945 35.3828 2.604 35.367C2.83733 35.3497 2.79482 35.5442 2.79533 35.6844C2.79813 36.4532 2.79061 37.222 2.80051 37.9907C2.80334 38.211 2.74543 38.2983 2.50702 38.3005C2.24999 38.3028 2.22292 38.1789 2.22955 37.9763C2.2463 37.4642 2.25248 36.9517 2.26289 36.4394C2.29768 36.3555 2.25873 36.2621 2.28837 36.2124C2.27382 36.2767 2.23704 36.3339 2.18451 36.3737Z" fill="#5183C3"/>
<path d="M37.6389 36.8107C37.639 36.4197 37.648 36.0283 37.6354 35.6376C37.6287 35.4278 37.7009 35.3393 37.913 35.3588C38.0342 35.3678 38.1558 35.3681 38.277 35.3597C39.6123 35.2896 39.9633 36.1308 39.8222 37.1962C39.7379 37.8324 39.2811 38.227 38.6064 38.2887C37.6388 38.3771 37.6388 38.3771 37.6388 37.4176C37.6388 37.2153 37.6388 37.013 37.6389 36.8107Z" fill="#5183C3"/>
<path d="M48.0255 37.1542C48.0255 36.885 48.0216 36.6156 48.0266 36.3464C48.0319 36.0601 48.3045 35.8925 48.4882 36.0926C48.6508 36.2696 48.6901 36.1695 48.8059 36.0903C49.0924 35.8942 49.3063 36.059 49.5063 36.2569C49.6916 36.0521 49.9082 35.9216 50.182 36.0624C50.266 36.108 50.3354 36.1764 50.3823 36.2596C50.4293 36.3429 50.4518 36.4377 50.4473 36.5331C50.4542 37.0446 50.4487 37.5563 50.461 38.0675C50.4673 38.3293 50.2928 38.2866 50.134 38.2939C49.9668 38.3016 49.8452 38.2798 49.8512 38.063C49.8613 37.6997 49.8593 37.3359 49.8503 36.9726C49.847 36.8381 49.9112 36.6158 49.7091 36.6142C49.4908 36.6124 49.5289 36.8397 49.5264 36.9942C49.521 37.3307 49.519 37.6675 49.5265 38.0039C49.5309 38.199 49.4776 38.2975 49.2552 38.299C49.0363 38.3005 48.9785 38.2171 48.9848 38.0134C48.9968 37.6233 48.9908 37.2326 48.9858 36.8422C48.9845 36.7437 49.0156 36.5998 48.8519 36.6034C48.7223 36.6063 48.6728 36.7224 48.6704 36.8332C48.6622 37.2235 48.6529 37.6144 48.6685 38.0041C48.6779 38.2394 48.5897 38.3038 48.3657 38.2988C48.1506 38.2941 47.9984 38.2852 48.0207 38.002C48.0428 37.721 48.0256 37.4369 48.0255 37.1542Z" fill="#5183C3"/>
<path d="M58.465 38.2552C58.021 38.3458 57.6731 38.3641 57.6388 37.8C57.6197 37.4864 57.3443 37.5819 57.1644 37.5899C56.9793 37.5983 56.722 37.4588 56.6484 37.803C56.6141 37.9637 56.6346 38.1954 56.4557 38.263C56.292 38.3265 56.1105 38.3272 55.9463 38.265C55.7725 38.1802 55.9358 38.0016 55.9717 37.8804C56.1927 37.134 56.4494 36.3979 56.658 35.6482C56.7387 35.3582 56.9102 35.3537 57.1375 35.3576C57.3678 35.3616 57.5688 35.3313 57.6583 35.6479C57.9024 36.5118 58.1863 37.3645 58.465 38.2552Z" fill="#5183C3"/>
<path d="M6.62365 36.9106C7.01556 36.6473 7.16218 36.2134 7.54248 36.056C7.70027 35.9907 7.90768 36.0451 8.17065 36.0451C7.92308 36.3222 7.73115 36.5586 7.51531 36.7708C7.37073 36.9129 7.37054 37.019 7.48776 37.178C7.74077 37.5213 7.97435 37.8789 8.22119 38.2383C7.69739 38.426 7.41482 38.1993 7.20697 37.7808C7.14135 37.6487 7.06911 37.4034 6.91282 37.4538C6.80922 37.4903 6.7226 37.5636 6.66938 37.6597C6.61616 37.7557 6.60004 37.868 6.62407 37.9752C6.68197 38.3125 6.46675 38.299 6.23463 38.2966C6.05675 38.2947 5.96203 38.2589 5.9638 38.0526C5.97145 37.1631 5.97521 36.2735 5.96223 35.3842C5.95812 35.1021 6.12777 35.1386 6.30412 35.1321C6.49783 35.1251 6.63949 35.1331 6.62903 35.3997C6.61005 35.883 6.62365 36.3676 6.62365 36.9106Z" fill="#5183C3"/>
<path d="M26.5316 37.5069C26.5316 37.6683 26.5372 37.83 26.5295 37.9911C26.5247 38.0908 26.5789 38.237 26.4422 38.2695C26.2951 38.3045 26.0885 38.3706 25.9991 38.2203C25.9024 38.0578 25.8373 38.0945 25.722 38.1631C25.6407 38.2106 25.5544 38.2489 25.4647 38.2773C24.9659 38.4391 24.5317 38.2542 24.4116 37.8328C24.2986 37.4365 24.5267 37.1199 25.0456 36.9743C25.2388 36.9201 25.4401 36.8948 25.6374 36.8547C25.698 36.8424 25.7846 36.8656 25.8022 36.7808C25.8219 36.686 25.7457 36.6374 25.6757 36.5963C25.4396 36.4577 25.1973 36.5142 24.9786 36.6189C24.7497 36.7286 24.6308 36.6587 24.54 36.4499C24.4233 36.1816 24.6802 36.2053 24.7929 36.1469C25.0009 36.0498 25.2285 36.0019 25.4581 36.007C26.1457 35.9934 26.4766 36.2908 26.5273 36.9823C26.54 37.1563 26.5292 37.332 26.5292 37.5069L26.5316 37.5069Z" fill="#5183C3"/>
<path d="M47.6636 37.5293C47.6636 37.6772 47.6673 37.8251 47.6628 37.9729C47.654 38.2606 47.3264 38.4597 47.1675 38.252C46.9706 37.9947 46.8508 38.1765 46.7077 38.2327C46.2898 38.3966 45.8795 38.3454 45.6653 38.0843C45.3868 37.7446 45.4964 37.2873 45.9131 37.072C46.1801 36.934 46.4767 36.9037 46.7675 36.8541C46.8288 36.8436 46.9152 36.8667 46.9358 36.7855C46.9596 36.6917 46.8833 36.6406 46.8139 36.5991C46.5794 36.4588 46.3379 36.5128 46.1176 36.6161C45.9 36.7182 45.7729 36.6858 45.6765 36.4623C45.5482 36.165 45.8294 36.2008 45.9488 36.1385C46.1698 36.0371 46.4124 35.9919 46.6551 36.007C47.2699 36.0134 47.571 36.2713 47.6451 36.8854C47.6593 37.0998 47.6606 37.3147 47.6492 37.5293L47.6636 37.5293Z" fill="#5183C3"/>
<path d="M5.39883 37.5163C5.39883 37.6781 5.40476 37.8402 5.39663 38.0016C5.39166 38.1003 5.44646 38.242 5.30011 38.2747C5.15995 38.306 4.93558 38.3589 4.88351 38.2467C4.75693 37.9741 4.64034 38.164 4.51106 38.2041C4.36064 38.2612 4.20479 38.303 4.04592 38.3286C3.64618 38.3662 3.32513 38.14 3.26732 37.7796C3.20669 37.4015 3.40189 37.1531 3.74012 37.0323C3.98497 36.9597 4.23367 36.9008 4.48506 36.8558C4.55488 36.8394 4.66415 36.877 4.66975 36.7579C4.67404 36.6668 4.5965 36.6202 4.52415 36.5819C4.28248 36.4541 4.04242 36.5249 3.82412 36.6268C3.60409 36.7295 3.50726 36.6469 3.41913 36.4601C3.31055 36.23 3.50753 36.2163 3.62639 36.1591C3.87275 36.0469 4.14227 35.9949 4.4127 36.0073C5.01393 36.0193 5.33589 36.3099 5.39112 36.91C5.40958 37.1105 5.39404 37.3141 5.39404 37.5163H5.39883Z" fill="#5183C3"/>
<path d="M68.1052 36.8068C67.9051 36.4566 67.6292 36.4902 67.3341 36.5832C67.2202 36.6191 67.1003 36.6826 66.99 36.6705C66.8589 36.6562 66.8294 36.5015 66.7853 36.3938C66.7203 36.2352 66.8774 36.2302 66.9591 36.1884C67.2384 36.0501 67.5493 35.9883 67.8602 36.0092C68.432 36.0357 68.7322 36.3167 68.7621 36.8841C68.7813 37.2472 68.7744 37.6121 68.7689 37.9759C68.7673 38.0852 68.8271 38.244 68.6554 38.2775C68.5298 38.302 68.3425 38.3588 68.2778 38.2385C68.1435 37.9886 68.0178 38.1548 67.8913 38.2101C67.6731 38.3196 67.4249 38.3543 67.1851 38.309C67.0503 38.2878 66.9259 38.2236 66.8306 38.126C66.7352 38.0283 66.674 37.9025 66.656 37.7672C66.6073 37.4715 66.7384 37.2442 66.9989 37.0939C67.3314 36.902 67.7184 36.9087 68.1052 36.8068Z" fill="#5183C3"/>
<path d="M11.2345 37.1278C11.2343 36.8718 11.2268 36.6156 11.2377 36.3601C11.2427 36.2427 11.1642 36.0568 11.3805 36.049C11.525 36.0438 11.7272 35.9544 11.7894 36.1841C11.832 36.3414 11.888 36.3021 11.9743 36.2298C12.0259 36.1865 12.0819 36.1488 12.1413 36.1172C12.7182 35.8113 13.2623 36.0698 13.3249 36.7131C13.369 37.167 13.3353 37.6282 13.3426 38.086C13.3469 38.3599 13.1468 38.2819 13.0009 38.291C12.836 38.3012 12.6716 38.3163 12.681 38.06C12.6934 37.7236 12.6896 37.3864 12.6809 37.0498C12.6747 36.8127 12.6494 36.566 12.3205 36.5817C12.0131 36.5964 11.8665 36.7565 11.8862 37.0813C11.9057 37.4034 11.8781 37.7282 11.8941 38.0507C11.9064 38.2994 11.7612 38.3032 11.5866 38.2927C11.4228 38.2829 11.2183 38.3529 11.2316 38.0571C11.2455 37.7479 11.2347 37.4376 11.2345 37.1278Z" fill="#5183C3"/>
<path d="M22.8901 36.0081C23.3017 36.0019 23.6238 36.1548 23.8131 36.5349C24.1117 37.1342 23.9804 37.3545 23.3283 37.3546C23.0861 37.3547 22.8439 37.3529 22.6018 37.3559C22.379 37.3586 22.382 37.4713 22.4958 37.6081C22.7315 37.8914 23.0511 37.8648 23.3508 37.7787C23.5592 37.7188 23.689 37.7344 23.7652 37.9409C23.8621 38.2033 23.6192 38.1955 23.495 38.2369C22.9822 38.408 22.4804 38.3949 22.0626 38.0042C21.7163 37.6803 21.6475 37.266 21.7697 36.8179C21.9055 36.3201 22.3416 36.0077 22.8901 36.0081Z" fill="#5183C3"/>
<path d="M44.3021 37.3545C44.1537 37.3545 44.005 37.3491 43.8569 37.3564C43.7554 37.3613 43.6039 37.306 43.5702 37.4318C43.5305 37.5797 43.6635 37.6765 43.7829 37.7403C43.8975 37.7991 44.0237 37.8318 44.1525 37.8363C44.2812 37.8408 44.4094 37.8169 44.5279 37.7663C44.7398 37.6858 44.8294 37.7845 44.9014 37.9476C44.9924 38.1536 44.8068 38.1674 44.6978 38.2154C44.0733 38.4902 43.307 38.2891 43.0056 37.7784C42.8608 37.5315 42.8095 37.2408 42.8612 36.9593C42.9128 36.6778 43.064 36.4243 43.287 36.2449C43.957 35.708 44.8896 36.0379 45.0413 36.8656C45.121 37.3009 45.0778 37.352 44.6259 37.3544C44.518 37.3549 44.41 37.3545 44.3021 37.3545Z" fill="#5183C3"/>
<path d="M65.4025 37.3544C65.2677 37.3544 65.1321 37.345 64.9985 37.3573C64.8919 37.3672 64.7271 37.2898 64.7019 37.4635C64.6832 37.5927 64.8023 37.679 64.9097 37.7376C65.0238 37.797 65.1496 37.8306 65.2782 37.8359C65.4068 37.8412 65.5349 37.8181 65.6535 37.7682C65.8616 37.6908 65.9531 37.7733 66.0267 37.943C66.1307 38.1825 65.914 38.1837 65.7984 38.2234C65.2725 38.4042 64.7497 38.4106 64.3228 38.0058C63.9578 37.6597 63.889 37.2124 64.0574 36.739C64.238 36.231 64.7288 35.9548 65.319 36.0173C65.786 36.0667 66.0937 36.3685 66.1669 36.8489C66.2382 37.317 66.2069 37.353 65.726 37.3543C65.6181 37.3546 65.5103 37.3543 65.4025 37.3544Z" fill="#5183C3"/>
<path d="M79.4982 36.0839C79.1358 36.9517 78.8679 37.8532 78.438 38.691C78.2748 39.009 77.9846 39.1448 77.6446 39.164C77.5035 39.1719 77.2748 39.2275 77.2802 38.9877C77.2838 38.8309 77.2851 38.6288 77.5826 38.6148C77.984 38.596 78.093 38.3495 77.9281 37.9748C77.6529 37.3493 77.3758 36.7246 77.0969 36.0938C77.709 35.9776 77.7096 35.9773 77.9087 36.4988C78.0472 36.8616 78.1838 37.2251 78.3444 37.6496C78.4817 37.2373 78.6278 36.8846 78.7136 36.5177C78.8137 36.0895 79.04 35.9417 79.4982 36.0839Z" fill="#5183C3"/>
<path d="M33.4426 37.6423C33.6177 37.1271 33.78 36.7134 33.8966 36.2873C33.9974 35.9186 34.2689 36.0426 34.4845 36.0585C34.6241 36.0688 34.5455 36.2045 34.5144 36.2848C34.2328 37.0129 33.9593 37.7444 33.6617 38.4659C33.4843 38.8959 33.1651 39.1686 32.6725 39.1682C32.5471 39.1681 32.3674 39.191 32.3818 38.9868C32.392 38.8418 32.3709 38.6715 32.6074 38.6239C33.1497 38.5147 33.2071 38.3811 32.9854 37.8834C32.7717 37.4038 32.5483 36.9281 32.354 36.4408C32.3093 36.3287 32.064 36.1423 32.3291 36.0617C32.5222 36.0029 32.8119 35.9244 32.9268 36.2733C33.0685 36.7036 33.2447 37.1225 33.4426 37.6423Z" fill="#5183C3"/>
<path d="M76.4095 37.806C76.6601 37.6596 76.7071 37.8655 76.7403 38.0603C76.7862 38.3305 76.5599 38.2789 76.419 38.2993C75.4251 38.4427 75.0757 38.1352 75.0725 37.1284C75.0716 36.8475 75.175 36.4987 74.6641 36.571C74.4947 36.5949 74.5151 36.4205 74.5082 36.3015C74.5 36.1591 74.5484 36.0488 74.7048 36.0608C75.0215 36.0851 75.1825 35.9764 75.1569 35.6344C75.1384 35.3855 75.3141 35.3738 75.5088 35.3708C75.7321 35.3674 75.7562 35.5011 75.7318 35.6589C75.6778 36.0075 75.8592 36.0771 76.1505 36.0415C76.2303 36.0318 76.3128 36.0457 76.3932 36.039C76.5823 36.0231 76.691 36.0613 76.6929 36.2955C76.6949 36.5358 76.6018 36.5844 76.3831 36.588C75.6967 36.5993 75.6968 36.608 75.736 37.2593C75.7643 37.7281 75.9061 37.8494 76.4095 37.806Z" fill="#5183C3"/>
<path d="M31.1731 38.3432C30.5243 38.3484 30.2037 38.0395 30.1867 37.3903C30.1795 37.256 30.1797 37.1214 30.1872 36.9871C30.2092 36.7278 30.1836 36.526 29.8382 36.5805C29.6521 36.6099 29.6149 36.494 29.6178 36.3347C29.6205 36.1877 29.6335 36.0416 29.8201 36.0618C30.1724 36.1001 30.2651 35.897 30.2631 35.6115C30.2611 35.3296 30.4532 35.3846 30.6229 35.3729C30.8118 35.3599 30.8688 35.4601 30.8392 35.6176C30.7488 36.0979 31.0682 36.0391 31.3671 36.0459C31.5358 36.0498 31.7978 35.9209 31.8009 36.2814C31.8029 36.5076 31.7262 36.5892 31.4978 36.5889C31.2899 36.5887 30.9939 36.4762 30.8905 36.6521C30.7534 36.8856 30.8169 37.2053 30.8595 37.4797C30.9155 37.8402 31.2157 37.8561 31.4888 37.7998C31.7251 37.751 31.7928 37.8248 31.8312 38.0431C31.8812 38.327 31.6695 38.2654 31.533 38.2976C31.414 38.3197 31.2939 38.3349 31.1731 38.3432Z" fill="#5183C3"/>
<path d="M51.9103 36.0018C52.1546 35.9947 52.3968 36.0472 52.6162 36.1547C52.7152 36.2046 52.9325 36.2089 52.8143 36.4105C52.7354 36.5453 52.6655 36.7458 52.4174 36.6123C52.2236 36.5123 52.0033 36.4756 51.7875 36.5074C51.6914 36.5196 51.5929 36.5421 51.5896 36.665C51.5868 36.7655 51.6748 36.7984 51.749 36.8213C52.0061 36.9005 52.2689 36.9619 52.5233 37.0481C52.7883 37.1379 52.9535 37.3181 52.9556 37.6159C52.9577 37.9128 52.7863 38.1005 52.5378 38.205C52.023 38.4214 51.5087 38.3677 51.0127 38.1326C50.9254 38.0913 50.7212 38.0806 50.8353 37.9C50.9151 37.7736 50.9635 37.5339 51.2166 37.6762C51.4445 37.797 51.7017 37.8514 51.959 37.8331C52.0883 37.8283 52.2612 37.8458 52.2784 37.666C52.2935 37.5083 52.1295 37.4976 52.0193 37.4638C51.8265 37.4046 51.6258 37.3691 51.4362 37.3018C51.1236 37.1909 50.8786 37.0122 50.9194 36.6284C50.959 36.2551 51.2322 36.1175 51.5489 36.0399C51.6683 36.0187 51.7891 36.006 51.9103 36.0018Z" fill="#5183C3"/>
<path d="M28.3361 36.4147C28.3363 36.7248 28.3363 37.0349 28.3363 37.345C28.3367 37.681 28.4916 37.8774 28.8368 37.7888C29.1303 37.7135 29.1064 37.9215 29.1508 38.0733C29.215 38.2923 29.0299 38.2729 28.9111 38.2968C28.0878 38.4627 27.6837 38.1272 27.6803 37.2784C27.6786 36.8605 27.6631 36.4416 27.6857 36.0248C27.7014 35.7364 27.6367 35.5916 27.3146 35.6335C27.1513 35.6547 26.9643 35.6897 26.9577 35.3984C26.9506 35.0847 27.1466 35.1366 27.3306 35.1342C28.336 35.1211 28.336 35.121 28.336 36.1315C28.336 36.2259 28.336 36.3203 28.3361 36.4147Z" fill="#5183C3"/>
<path d="M70.6056 36.3891C70.6057 36.7125 70.6095 37.036 70.6047 37.3593C70.5998 37.6837 70.7554 37.8696 71.0733 37.7913C71.3377 37.7262 71.3717 37.8642 71.4114 38.0427C71.4612 38.2665 71.2985 38.2747 71.1487 38.3019C70.3391 38.449 69.9534 38.1267 69.9486 37.2932C69.9462 36.862 69.9328 36.43 69.9536 35.9998C69.9671 35.7221 69.8875 35.6018 69.5959 35.6341C69.4153 35.6541 69.2197 35.6892 69.2252 35.375C69.231 35.0444 69.4518 35.139 69.6169 35.1368C70.6054 35.1234 70.6055 35.1262 70.6055 36.1061C70.6055 36.2005 70.6055 36.2948 70.6056 36.3891Z" fill="#5183C3"/>
<path d="M73.5863 37.1184C73.5863 37.4377 73.5733 37.6946 73.59 37.9496C73.6066 38.2023 73.5385 38.306 73.2572 38.3036C72.9716 38.3011 72.875 38.2101 72.8934 37.9307C72.9128 37.6355 72.8728 37.3353 72.9039 37.0421C72.9438 36.6666 72.807 36.5353 72.4367 36.5782C72.2238 36.6029 71.9523 36.6629 71.9907 36.2703C72.0076 36.0974 72.0638 36.0247 72.2346 36.0387C72.3015 36.0442 72.3698 36.0342 72.4366 36.0402C72.8073 36.0734 73.2836 35.8735 73.5217 36.1252C73.7389 36.3549 73.5598 36.8208 73.5863 37.1184Z" fill="#5183C3"/>
<path d="M41.0916 36.5087C41.3949 36.1419 41.7192 35.9503 42.15 36.0169C42.2752 36.0362 42.4637 36.0218 42.3893 36.2333C42.3407 36.3717 42.4173 36.5905 42.1285 36.6077C41.2638 36.6589 41.1348 36.8137 41.1347 37.6923C41.1286 37.7863 41.1293 37.8807 41.1368 37.9747C41.1792 38.2639 41.024 38.2932 40.784 38.3008C40.5221 38.3092 40.4667 38.2088 40.4738 37.9721C40.4889 37.4743 40.4667 36.9754 40.485 36.4778C40.4909 36.3159 40.3393 36.0434 40.7074 36.0375C41.0004 36.0328 41.0139 36.035 41.0916 36.5087Z" fill="#5183C3"/>
<path d="M10.1848 37.2025C10.185 37.4313 10.1752 37.6606 10.1876 37.8888C10.2015 38.1436 10.1913 38.3116 9.84017 38.3062C9.49805 38.3008 9.51797 38.1215 9.52496 37.8961C9.53121 37.6944 9.52627 37.4924 9.52627 37.2905C9.52627 36.6421 9.52686 36.6334 8.87287 36.588C8.67569 36.5743 8.61937 36.4981 8.62165 36.3166C8.62378 36.1466 8.64932 36.0319 8.86096 36.0378C9.22416 36.0478 9.58797 36.0461 9.95127 36.0378C10.1257 36.0339 10.1915 36.1007 10.1869 36.2739C10.1787 36.5832 10.1846 36.8929 10.1848 37.2025Z" fill="#5183C3"/>
<path d="M73.6522 35.2977C73.6129 35.5688 73.4491 35.7097 73.1864 35.6961C72.9472 35.6837 72.7791 35.5576 72.7851 35.2897C72.7909 35.0276 72.9445 34.903 73.1954 34.8943C73.4716 34.8848 73.6116 35.0374 73.6522 35.2977Z" fill="#5183C3"/>
<path d="M10.2632 35.2962C10.2257 35.5407 10.085 35.6919 9.83839 35.6975C9.57727 35.7034 9.38672 35.5693 9.38672 35.2936C9.38673 35.0174 9.57171 34.8891 9.83901 34.8948C10.0941 34.9001 10.2243 35.0507 10.2632 35.2962Z" fill="#5183C3"/>
<path d="M65.0355 24.5623C65.0355 25.034 64.9932 25.5104 65.0447 25.9764C65.1395 26.8343 64.6248 27.1232 64.0616 27.3491C63.1207 27.7265 62.1823 27.3273 61.8649 26.3662C61.4393 25.0772 61.3549 23.7607 62.1505 22.5626C62.7136 21.7147 64.2688 21.6803 64.9504 22.4439C65.0456 22.5505 65.0342 22.665 65.0346 22.7833C65.0365 23.3763 65.0355 23.9693 65.0355 24.5623Z" fill="#EFF2F9"/>
<path d="M57.6357 9.44136C57.6261 8.70992 57.7055 8.04479 58.0496 7.44028C58.6879 6.31888 60.2537 6.27827 60.8536 7.42036C61.5248 8.69795 61.485 10.0493 60.8932 11.3548C60.6059 11.9884 60.041 12.2712 59.3386 12.2243C58.6649 12.1793 58.2225 11.8003 57.9504 11.206C57.7098 10.6502 57.602 10.046 57.6357 9.44136Z" fill="#EFF2F9"/>
<path d="M75.2181 23.6138C74.7331 23.614 74.2475 23.5999 73.7632 23.6189C73.4408 23.6317 73.4116 23.5207 73.4982 23.2392C73.8412 22.1253 74.6942 21.5756 75.802 21.7799C76.5466 21.9173 77.0906 22.6546 77.0243 23.4093C77.0067 23.6095 76.8966 23.6141 76.754 23.6139C76.242 23.6133 75.7301 23.6133 75.2181 23.6138Z" fill="#EFF2F9"/>
<path d="M14.8932 38.3783C14.9332 38.3762 14.9734 38.3764 15.0133 38.379C15.1742 38.3981 15.4258 38.3115 15.4462 38.5389C15.4685 38.787 15.2092 38.7801 15.0302 38.796C14.8839 38.8079 14.7367 38.8027 14.5915 38.7806C14.4579 38.761 14.3132 38.7098 14.3368 38.5355C14.3566 38.3892 14.4804 38.3638 14.6128 38.3727C14.7059 38.379 14.7997 38.3739 14.8932 38.3739L14.8932 38.3783Z" fill="#EFF2F9"/>
<path d="M15.1673 36.8113C15.1407 37.0268 15.0571 37.1836 14.8144 37.1683C14.5777 37.1533 14.4874 36.9885 14.4973 36.7826C14.5064 36.5923 14.6154 36.4431 14.826 36.446C15.0553 36.4492 15.1477 36.6068 15.1673 36.8113Z" fill="#EFF2F9"/>
<path d="M62.4271 35.8749C62.6963 35.8954 62.9461 35.9543 62.9171 36.3061C62.887 36.6719 62.6114 36.698 62.3303 36.6906C61.8961 36.6792 62.1284 36.3449 62.0867 36.1539C62.0267 35.8793 62.2113 35.848 62.4271 35.8749Z" fill="#EFF2F9"/>
<path d="M20.0524 35.8627C20.3974 35.894 20.663 35.9228 20.6515 36.2825C20.6397 36.6514 20.3747 36.6822 20.0869 36.6952C19.6696 36.714 19.8492 36.4048 19.8186 36.2189C19.7802 35.9848 19.8347 35.8127 20.0524 35.8627Z" fill="#EFF2F9"/>
<path d="M38.2943 36.8205C38.2942 36.6194 38.3103 36.4167 38.2907 36.2176C38.2568 35.8733 38.4039 35.8312 38.691 35.9295C39.1018 36.0703 39.1678 36.404 39.1767 36.7644C39.1864 37.1536 39.1315 37.5325 38.7099 37.7005C38.4717 37.7954 38.2534 37.7982 38.2907 37.4234C38.3106 37.2243 38.2943 37.0216 38.2943 36.8205Z" fill="#EFF2F9"/>
<path d="M57.1933 36.0526C57.2538 36.2787 57.3016 36.5092 57.378 36.7298C57.4846 37.0372 57.3516 37.1023 57.076 37.084C56.9129 37.0732 56.8261 37.0602 56.8915 36.8579C56.9769 36.5942 57.0292 36.3198 57.0958 36.05L57.1933 36.0526Z" fill="#EFF2F9"/>
<path d="M25.403 37.8223C25.1959 37.819 25.0051 37.7968 25.0351 37.6088C25.0873 37.2814 25.4094 37.3242 25.6409 37.2615C25.7987 37.2188 25.8554 37.3167 25.8448 37.4654C25.822 37.7828 25.556 37.7597 25.403 37.8223Z" fill="#EFF2F9"/>
<path d="M46.5324 37.8232C46.3281 37.8175 46.1384 37.7989 46.1678 37.6071C46.2188 37.274 46.5436 37.3251 46.7739 37.2613C46.9332 37.2172 46.9866 37.3173 46.9765 37.4656C46.9547 37.7853 46.6879 37.7603 46.5324 37.8232Z" fill="#EFF2F9"/>
<path d="M4.22602 37.8243C4.0381 37.8154 3.85651 37.7774 3.90385 37.5877C3.98122 37.2777 4.29386 37.3151 4.52983 37.2577C4.68354 37.2203 4.75887 37.303 4.73609 37.4584C4.68965 37.7751 4.43025 37.7817 4.22602 37.8243Z" fill="#EFF2F9"/>
<path d="M67.636 37.8231C67.4546 37.8156 67.2673 37.797 67.3021 37.6004C67.3606 37.2695 67.6835 37.323 67.9145 37.2607C68.0817 37.2156 68.1221 37.3308 68.1088 37.4718C68.0795 37.7842 67.8227 37.7728 67.636 37.8231Z" fill="#EFF2F9"/>
<path d="M22.8765 36.9361C22.7235 36.8787 22.4656 37.0158 22.4511 36.8361C22.4343 36.6288 22.6576 36.5153 22.8839 36.5099C23.0945 36.5048 23.3082 36.5865 23.2901 36.7993C23.2674 37.0666 23.0029 36.849 22.8765 36.9361Z" fill="#EFF2F9"/>
<path d="M43.5408 36.9226C43.7575 36.4834 44.1846 36.3825 44.3806 36.6708C44.4735 36.8073 44.4975 36.9252 44.266 36.9231C44.0389 36.921 43.8118 36.9226 43.5408 36.9226Z" fill="#EFF2F9"/>
<path d="M65.1438 36.949C64.9861 36.87 64.731 37.0275 64.7201 36.8216C64.7086 36.6024 64.9402 36.5122 65.1633 36.5097C65.3782 36.5073 65.5868 36.6091 65.5592 36.8133C65.5257 37.0609 65.2592 36.8302 65.1438 36.949Z" fill="#EFF2F9"/>
</g>
<defs>
<clipPath id="clip0_353_12344">
<rect width="96.5517" height="40" fill="white"/>
</clipPath>
</defs>
</svg>
