<svg width="24" height="24" viewBox="0 0 24 24" fill="none" xmlns="http://www.w3.org/2000/svg">
<path d="M7 5V4.25C6.58579 4.25 6.25 4.58579 6.25 5H7ZM11 15V14.25C10.5858 14.25 10.25 14.5858 10.25 15H11ZM11 20V20.75C11.4142 20.75 11.75 20.4142 11.75 20H11ZM7 20H6.25C6.25 20.4142 6.58579 20.75 7 20.75V20ZM7 5.75H13V4.25H7V5.75ZM13 14.25H11V15.75H13V14.25ZM10.25 15V20H11.75V15H10.25ZM11 19.25H7V20.75H11V19.25ZM7.75 20V5H6.25V20H7.75ZM17.25 10C17.25 12.3472 15.3472 14.25 13 14.25V15.75C16.1756 15.75 18.75 13.1756 18.75 10H17.25ZM13 5.75C15.3472 5.75 17.25 7.65279 17.25 10H18.75C18.75 6.82436 16.1756 4.25 13 4.25V5.75Z" fill="#28303F"/>
</svg>
