<svg width="22" height="22" viewBox="0 0 22 22" fill="none" xmlns="http://www.w3.org/2000/svg">
<path d="M2.63048 12.968L2.08685 13.4847L2.63048 12.968ZM2.63048 9.03199L2.08685 8.5153L2.63048 9.03199ZM19.3694 12.968L19.913 13.4847L19.3694 12.968ZM19.3694 9.03199L19.913 8.5153L19.3694 9.03199ZM18.8257 12.4513C17.0488 14.3209 14.162 16.6666 10.9999 16.6666V18.1666C14.833 18.1666 18.1043 15.3876 19.913 13.4847L18.8257 12.4513ZM10.9999 16.6666C7.83786 16.6666 4.95107 14.3209 3.17411 12.4513L2.08685 13.4847C3.8955 15.3876 7.16686 18.1666 10.9999 18.1666V16.6666ZM3.17411 9.54867C4.95107 7.67906 7.83786 5.33331 10.9999 5.33331V3.83331C7.16686 3.83331 3.8955 6.61235 2.08685 8.5153L3.17411 9.54867ZM10.9999 5.33331C14.162 5.33331 17.0488 7.67906 18.8257 9.54867L19.913 8.5153C18.1043 6.61234 14.833 3.83331 10.9999 3.83331V5.33331ZM3.17411 12.4513C2.3863 11.6224 2.3863 10.3776 3.17411 9.54867L2.08685 8.5153C0.748718 9.92321 0.748719 12.0768 2.08685 13.4847L3.17411 12.4513ZM19.913 13.4847C21.2511 12.0768 21.2511 9.92321 19.913 8.5153L18.8257 9.54867C19.6135 10.3776 19.6135 11.6224 18.8257 12.4513L19.913 13.4847ZM12.9999 11C12.9999 12.1045 12.1045 13 10.9999 13V14.5C12.9329 14.5 14.4999 12.933 14.4999 11H12.9999ZM10.9999 13C9.89535 13 8.99992 12.1045 8.99992 11H7.49992C7.49992 12.933 9.06692 14.5 10.9999 14.5V13ZM8.99992 11C8.99992 9.89541 9.89535 8.99998 10.9999 8.99998V7.49998C9.06692 7.49998 7.49992 9.06698 7.49992 11H8.99992ZM10.9999 8.99998C12.1045 8.99998 12.9999 9.89541 12.9999 11H14.4999C14.4999 9.06698 12.9329 7.49998 10.9999 7.49998V8.99998Z" fill="#7D8797"/>
</svg>
